<?xml version="1.0" encoding="utf-8"?>
<!-- Generator: Adobe Illustrator 16.0.0, SVG Export Plug-In . SVG Version: 6.00 Build 0)  -->
<!DOCTYPE svg PUBLIC "-//W3C//DTD SVG 1.1//EN" "http://www.w3.org/Graphics/SVG/1.1/DTD/svg11.dtd">
<svg version="1.1" id="Layer_1" xmlns="http://www.w3.org/2000/svg" xmlns:xlink="http://www.w3.org/1999/xlink" x="0px" y="0px"
	 width="425.797px" height="307.041px" viewBox="0 0 425.797 307.041" enable-background="new 0 0 425.797 307.041"
	 xml:space="preserve">
<g>
	<g>
		<path fill="#00AEEF" d="M47.1,30.545c0,8.179-6.689,14.868-14.857,14.868H14.877C6.688,45.413,0,38.724,0,30.545V14.858
			C0,6.689,6.688,0,14.877,0h17.365C40.41,0,47.1,6.689,47.1,14.858V30.545z"/>
		<g>
			<path d="M32.242,76.255H14.877C6.688,76.255,0,82.943,0,91.123v166.519c0,8.169,6.688,14.868,14.877,14.868h17.365
				c8.168,0,14.857-6.699,14.857-14.868V91.123C47.1,82.943,40.41,76.255,32.242,76.255z"/>
			<path d="M425.797,200.33V71.341c0-31.709-14.799-52.645-44.396-62.807C363.148,2.841,335.049,0,297.066,0h-79.857
				c-36.918,0-65.016,3.068-84.314,9.205C102.686,19.663,87.59,40.45,87.59,71.549V200.28c0,48.146,43.313,72.229,129.955,72.229
				h95.818l55.883,30.723c4.795,2.536,9.51,3.809,14.146,3.809c6.729,0,12.709-1.796,17.938-5.387
				c5.682-4.025,8.523-9.344,8.523-15.914c0-4.795-3.748-9.797-11.207-15.036c-0.75-0.443-2.545-1.479-5.387-3.117
				c-2.842-1.628-6.867-3.858-12.115-6.68C410.92,249.838,425.797,229.642,425.797,200.33z M376.014,201.819
				c0,19.762-25.514,29.647-76.561,29.647h-86.209c-23.482,0-38.834-0.977-46.016-2.92c-19.891-4.203-29.855-13.25-29.855-27.171
				V70.907c0-14.217,10.637-23.422,31.889-27.615c8.682-1.796,24.764-2.693,48.264-2.693h77.902
				c53.73,0,80.586,10.103,80.586,30.309V201.819z"/>
		</g>
	</g>
</g>
</svg>
